<?xml version="1.0" encoding="UTF-8" standalone="no"?>
<!-- Created with Inkscape (http://www.inkscape.org/) -->

<svg
   width="32"
   height="32"
   viewBox="0 0 32 32"
   version="1.1"
   id="svg1"
   inkscape:version="1.4.2 (f4327f4, 2025-05-13)"
   sodipodi:docname="logo-vector.svg"
   xmlns:inkscape="http://www.inkscape.org/namespaces/inkscape"
   xmlns:sodipodi="http://sodipodi.sourceforge.net/DTD/sodipodi-0.dtd"
   xmlns="http://www.w3.org/2000/svg"
   xmlns:svg="http://www.w3.org/2000/svg">
  <sodipodi:namedview
     id="namedview1"
     pagecolor="#ffffff"
     bordercolor="#111111"
     borderopacity="1"
     inkscape:showpageshadow="0"
     inkscape:pageopacity="0"
     inkscape:pagecheckerboard="1"
     inkscape:deskcolor="#b9b9b9"
     inkscape:document-units="px"
     labelstyle="default"
     inkscape:zoom="16"
     inkscape:cx="10.78125"
     inkscape:cy="15.71875"
     inkscape:window-width="1920"
     inkscape:window-height="991"
     inkscape:window-x="-9"
     inkscape:window-y="-9"
     inkscape:window-maximized="1"
     inkscape:current-layer="layer3" />
  <defs
     id="defs1" />
  <g
     inkscape:label="Capa 1"
     inkscape:groupmode="layer"
     id="layer1"
     style="display:inline">
    <circle
       style="display:inline;opacity:1;fill:#104ed1;fill-opacity:1"
       id="fondo"
       cx="16.006443"
       cy="16.003504"
       r="16" />
    <rect
       style="display:none;opacity:1;fill:#641760;fill-opacity:1"
       id="rect13"
       width="32"
       height="32"
       x="-10.122174"
       y="-44.416855"
       transform="rotate(135)" />
    <path
       d="M 31.925781,17.611328 30,15.685547 A 14,14 0 0 1 30.003906,16 a 14,14 0 0 1 -14,14 14,14 0 0 1 -13.9999997,-14 14,14 0 0 1 0.00781,-0.451172 L 0.07421875,17.484375 A 16,16 0 0 0 16.005859,32.003906 16,16 0 0 0 31.925781,17.611328 Z"
       style="display:inline;opacity:1;fill:#10106d;fill-opacity:1"
       id="sombraFondo" />
  </g>
  <g
     inkscape:groupmode="layer"
     id="layer2"
     inkscape:label="Capa 2"
     style="display:inline">
    <ellipse
       style="display:inline;fill:#edc537;fill-opacity:1;stroke-width:1.02258"
       id="centro"
       cx="16"
       cy="15.867417"
       rx="14.25"
       ry="14.382583" />
    <ellipse
       style="display:inline;fill:#4ef179;fill-opacity:1;stroke-width:1.05699"
       id="sol"
       cx="16"
       cy="8.4497662"
       rx="6.75"
       ry="5.8095922" />
    <path
       d="M 30.244141,15.935547 C 26.645705,20.062692 21.321778,23.560974 16,23.561 10.682077,23.56068 5.3537669,19.932695 1.7558593,15.810547 1.7519223,15.946579 1.749969,16.082661 1.75,16.21875 c 0,7.731986 6.5062946,14.042969 14.238281,14.042969 7.731986,0 14.265625,-6.174264 14.265625,-13.90625 9.4e-5,-0.138694 -0.0019,-0.277381 -0.0059,-0.416016 z"
       style="display:inline;fill:#ed912d;fill-opacity:1"
       id="sombraCentro"
       sodipodi:nodetypes="ccccsccc" />
  </g>
  <g
     inkscape:groupmode="layer"
     id="layer3"
     inkscape:label="Capa 3"
     style="display:inline">
    <path
       style="display:inline;opacity:1;fill:#10106d;fill-opacity:1;stroke-width:0.978747"
       d="m 10.084777,10.401724 c 0.214224,-1.674484 11.526363,-1.744201 11.81755,0 0.291187,1.744201 0.0603,9.674935 0,11.520276 -0.580537,3.145542 -11.365518,3.117884 -11.7863,-0.09375 -0.03936,-3.347956 -0.2454738,-9.752042 -0.03125,-11.426526 z"
       id="cuerpo"
       sodipodi:nodetypes="zzccz" />
    <path
       d="M 21.785156,22.285156 C 19.913895,23.088253 17.956531,23.560537 16,23.560547 c -1.947159,-1.17e-4 -3.895274,-0.485696 -5.759766,-1.304688 1.223778,2.663272 10.297413,2.670085 11.544922,0.0293 z"
       style="display:inline;opacity:1;fill:#231037;stroke-width:0.978747;fill-opacity:1"
       id="path11" />
    <path
       style="display:inline;opacity:1;fill:#10106d;fill-opacity:1;stroke-width:0.46084"
       d="m 12.096642,8.0360445 c 1.052255,-0.6619028 7.260861,-0.739344 7.807442,0 0.230993,0.9689349 -0.04614,3.5056765 0,4.2434245 0.04614,0.737749 -7.715358,0.771046 -7.807442,0 -0.09209,-0.771045 -0.205945,-3.7377717 0,-4.2434245 z"
       id="cabeza"
       sodipodi:nodetypes="cczzc" />
    <path
       style="fill:#10106d;fill-opacity:1"
       d="m 24.303152,18.192117 c 0.596264,-0.02104 0.830699,-0.536505 0.565534,-1.287806 C 24.658089,16.30762 23.127037,13.240743 22.342916,12.9 c 0.006,0.920667 -0.01951,0.682856 0.01831,1.358017 0.415937,1.740203 1.168957,3.961373 1.941926,3.9341 z"
       id="Pata_dcha"
       sodipodi:nodetypes="ssccs" />
    <path
       style="fill:#10106d;fill-opacity:1;stroke-width:1.00001"
       d="M 7.7519481,18.192117 C 7.1556767,18.171077 6.9212387,17.655612 7.186407,16.904311 7.3970067,16.30762 8.928078,13.240743 9.712209,12.9 c -0.006,0.920667 0.01951,0.682856 -0.01831,1.358017 -0.415942,1.740203 -1.168972,3.961373 -1.9419509,3.9341 z"
       id="Pata_izda"
       sodipodi:nodetypes="ssccs" />
    <path
       d="m 19.974609,13.115234 a 9,9 0 0 1 -1.318359,0.523438 c -0.04258,2.45259 -0.0202,7.882848 0.04297,8.375 0.265493,0.66745 1.02933,0.588524 1.25,0.01172 0.05611,-0.584087 0.07106,-6.915212 0.02539,-8.910157 z"
       style="fill:#e4480f"
       id="path6" />
    <path
       d="M 16.673828,14.015625 A 9,9 0 0 1 16,14.039063 9,9 0 0 1 15.330078,14.015625 c -0.03493,2.67461 0.03013,7.91641 0.06641,8.396484 0.265493,0.66745 1.02933,0.590477 1.25,0.01367 0.02548,-0.515157 0.04538,-5.773664 0.02734,-8.410156 z"
       style="fill:#f6c000"
       id="path5" />
    <path
       d="m 13.255859,13.611328 a 9,9 0 0 1 -1.267578,-0.515625 c -0.02397,2.054851 -0.0295,8.358949 0.01172,8.917969 0.265493,0.66745 1.02933,0.588524 1.25,0.01172 0.01415,-0.578493 0.01263,-6.041344 0.0059,-8.414063 z"
       style="fill:#c237cd"
       id="path9" />
    <path
       style="display:inline;fill:#10106d;fill-opacity:1;stroke-width:1.02248"
       d="m 22.415949,28.505029 c -0.299175,-0.283056 1.012362,-3.202508 0.57335,-3.797806 -0.29,0.459116 -0.710312,1.63899 -0.891118,1.592355 0.10065,-1.343721 1.294213,-2.835517 0.07182,-4.982791 6.09e-4,-0.369815 2.07e-4,-0.479655 0,-0.819787 1.421802,1.549994 3.068323,4.168907 0.245948,8.008029 z"
       id="pierna_dcha"
       sodipodi:nodetypes="cccccc" />
    <path
       d="m 22.478516,21.970703 c 0.675822,1.804485 -0.29075,3.125119 -0.38086,4.328125 0.180806,0.04663 0.602578,-1.132681 0.892578,-1.591797 0.439012,0.595298 -0.873393,3.515772 -0.574218,3.798828 2.20567,-3.000252 1.682669,-5.255874 0.669921,-6.83789 -0.200978,0.104545 -0.403998,0.205567 -0.607421,0.302734 z"
       style="display:inline;fill:#231037;stroke-width:1.02248;fill-opacity:1"
       id="path14" />
    <path
       style="fill:#10106d;fill-opacity:1"
       d="M 14.726136,7.6 C 14.106999,6.9869711 13.603408,6.2988854 13.43723,5.7883208 c 0.474683,0.033254 0.669864,0.6904907 1.142447,0.9056792 0.213839,-0.00511 0.444176,0.0154 0.643584,0 0.09462,-0.4603849 -0.01713,-1.25 -0.01713,-1.25 L 15.618017,5.8666562 15.66351,6.694 h 0.730359 l -0.01587,-1.25 0.430962,0.4382812 c 0,0 0.02103,0.244776 0.03182,0.8117188 C 17.640293,6.3691773 17.768823,6.3144952 18.39634,5.7804887 18.46583,6.1242567 17.918529,6.9744449 17.592932,7.6 c -0.884647,0.014628 -1.8792,7.345e-4 -2.866796,0 z"
       id="cuernos"
       sodipodi:nodetypes="cccccccccccccc" />
    <path
       style="display:inline;fill:#10106d;fill-opacity:1;stroke-width:1.02384"
       d="M 22.176282,10.791593 C 23.552328,8.019889 22.27951,5.2403465 19.963635,3.7422975 19.648514,3.5384584 19.453126,2.6264488 19.47276,2.1081664 c 0.801741,1.5308018 1.672818,2.2709967 3.066269,2.0333568 -0.07603,0.9903492 0.165042,1.4848696 1.160097,1.7025013 -0.396426,0.7909213 -0.380018,1.2777512 0.363164,1.8881485 -0.698006,0.4986088 -0.724804,0.9930729 -0.285827,1.684788 -0.474713,0.3484919 -0.914218,1.016581 -1.570432,1.942534 -0.01194,-0.265475 -0.02298,-0.399079 -0.02975,-0.567902 z"
       id="cuerno_dcho"
       sodipodi:nodetypes="cscccccccc" />
    <path
       style="display:inline;fill:#10106d;fill-opacity:1;stroke-width:1.02385"
       d="M 9.821056,10.791593 C 8.444975,8.019889 9.717825,5.2403465 12.033759,3.7422975 12.348888,3.5384584 12.544281,2.626116 12.524646,2.1078336 11.722885,3.6386354 10.851786,4.3791631 9.4583,4.1415232 9.53433,5.1318724 9.293254,5.6263928 8.298173,5.8440245 8.694609,6.6349458 8.678201,7.1217757 7.935,7.732173 c 0.698024,0.4986088 0.724823,0.9930729 0.285834,1.684788 0.474725,0.3484919 0.914242,1.016581 1.570472,1.942534 0.01194,-0.265475 0.02298,-0.399079 0.02975,-0.567902 z"
       id="path10"
       sodipodi:nodetypes="csccccccc" />
    <path
       style="display:inline;fill:#10106d;fill-opacity:1;stroke-width:1.0225"
       d="m 9.6622199,28.505029 c 0.299184,-0.283056 -1.012395,-3.202508 -0.573369,-3.797806 0.29001,0.459116 0.710335,1.63899 0.891147,1.592355 -0.100653,-1.343721 -1.294255,-2.835517 -0.07182,-4.982791 -6.09e-4,-0.369815 -2.07e-4,-0.479655 0,-0.819787 -1.421848,1.549994 -3.068422,4.168907 -0.245956,8.008029 z"
       id="path12"
       sodipodi:nodetypes="cccccc" />
    <path
       d="m 9,21.65625 c -1.0174737,1.582566 -1.5488393,3.842274 0.6621094,6.849609 0.299184,-0.283056 -1.0132448,-3.20353 -0.5742188,-3.798828 0.29001,0.459116 0.7117662,1.638432 0.8925782,1.591797 C 9.8902058,25.093815 8.9210455,23.770049 9.6035156,21.960937 9.4013854,21.863047 9.1997629,21.761505 9,21.65625 Z"
       style="display:inline;fill:#231037;stroke-width:1.0225;fill-opacity:1"
       id="path13" />
  </g>
  <g
     inkscape:groupmode="layer"
     id="layer4"
     inkscape:label="Capa 4"
     style="display:inline">
    <path
       style="display:inline;fill:#c8f158;fill-opacity:1;stroke:none;stroke-width:0.992369;stroke-opacity:1"
       d="m 10.448225,10.483427 c 0.665988,-1.4130369 10.483633,-1.2845736 11.158013,0.01657 0.142453,0.274848 0.08237,0.630063 0.05424,1.175003 -0.157843,0.0083 -0.237654,-0.0113 -0.525924,0 -0.260476,-2.2982418 -9.918644,-2.1004786 -10.158614,0 -0.485571,0.0032 -0.394619,0.0077 -0.718129,0 0.0016,-0.459299 0.128995,-0.960851 0.190414,-1.191573 z"
       id="path7"
       sodipodi:nodetypes="ssccccs" />
    <path
       style="fill:#c8f158;fill-opacity:1;stroke:none;stroke-width:0.692826;stroke-opacity:1"
       d="m 12.264917,8.3019035 c 0.0035,-0.8941055 7.599924,-0.7832594 7.544158,0.084293 0.01331,0.2249213 0.0334,0.3383376 0.01451,0.733803 -0.140419,0.00393 -0.145761,-0.00475 -0.331311,0 -0.06107,-1.713754 -6.895034,-1.4639029 -6.82302,0 -0.160771,0.00116 -0.482323,0 -0.482323,0 -0.01431,-0.4089393 0.04205,-0.6814924 0.07799,-0.8180965 z"
       id="path8"
       sodipodi:nodetypes="cccccccc" />
    <path
       style="fill:#c8f158"
       d="m 9.2009661,13.733623 c -0.1505153,-0.153738 -1.8031674,2.791414 -1.8712055,3.392747 -0.019844,0.175389 -0.03513,0.349473 0.1591413,0.18926 0.1942716,-0.160212 1.8234491,-3.468237 1.7120642,-3.582007 z"
       id="path1"
       sodipodi:nodetypes="sszs" />
    <path
       style="fill:#c8f158;stroke-width:1.00004"
       d="m 22.782388,13.733623 c 0.150527,-0.153738 1.841986,2.758268 1.910029,3.359601 0.01984,0.175389 0.03513,0.349473 -0.159153,0.18926 -0.194288,-0.160212 -1.86227,-3.435091 -1.750876,-3.548861 z"
       id="path2"
       sodipodi:nodetypes="sszs" />
    <path
       style="display:inline;fill:#c8f158;fill-opacity:1"
       d="m 15.542969,5.8515625 c -0.102317,-0.071616 -0.09374,0.921875 -0.09374,0.921875 0,0 -1.089145,-0.067715 -0.900229,0.1406252 0.06512,0.071812 2.493998,0.069785 2.572103,0.015625 0.223408,-0.1549161 -0.339843,-0.15625 -0.339843,-0.15625 0,0 -0.0093,-0.8727027 -0.08203,-0.949219 -0.104961,-0.1104842 -0.121093,0.9375 -0.121093,0.9375 l -0.964844,0.00781 c 0,0 -0.01537,-0.8795086 -0.07032,-0.9179715 z"
       id="boca_brillo"
       sodipodi:nodetypes="scsscsccss" />
  </g>
</svg>
